<?xml version="1.0" encoding="utf-8"?>
<!-- Generator: Adobe Illustrator 27.4.0, SVG Export Plug-In . SVG Version: 6.00 Build 0)  -->
<svg version="1.1" id="Layer_1" xmlns="http://www.w3.org/2000/svg" xmlns:xlink="http://www.w3.org/1999/xlink" x="0px" y="0px"
	 viewBox="0 0 160 160" style="enable-background:new 0 0 160 160;" xml:space="preserve">
<style type="text/css">
	.st0{fill:#007898;}
</style>
<g>
	<path class="st0" d="M85,5.5c-3.9,2.4-9.4,6.6-14.4,13.4c3.2,0.6,6.5,0.9,9.8,0.9c5.5,0,10.8-0.8,15.8-2.3
		C92.6,12.2,88.6,8.3,85,5.5z"/>
	<path class="st0" d="M71.1,92.6c-1.8-3.2-4.3-7.9-6.8-13.7c-3.9-9-7.1-16.4-8.5-24.2c-6.7,6.7-9.4,16.4-7,25.6l7.4,28.8l16.5-16.5
		l0,0C72.1,92.6,71.6,92.6,71.1,92.6z"/>
	<path class="st0" d="M104.2,54.7c-1.4,7.9-4.6,15.3-8.5,24.2c-2.5,5.8-5,10.5-6.8,13.7c-0.5,0-1,0-1.5,0l0,0l16.5,16.5l7.4-28.8
		C113.6,71.1,110.9,61.4,104.2,54.7z"/>
	<g>
		<path d="M80,50.2c5.6,0,10.1-4.5,10.1-10.1S85.6,30,80,30c-5.6,0-10.1,4.5-10.1,10.1S74.4,50.2,80,50.2z M80,34
			c3.4,0,6.1,2.7,6.1,6.1s-2.7,6.1-6.1,6.1s-6.1-2.7-6.1-6.1S76.6,34,80,34z"/>
		<path d="M86.4,74.9c-1.3,2.9-2.7,5.8-4.1,8.7c-0.5,1-0.1,2.2,0.9,2.7c0.3,0.2,0.6,0.2,0.9,0.2c0.7,0,1.4-0.4,1.8-1.1
			c1.5-2.9,3-5.9,4.3-9c1.2-2.7,2.3-5.3,3.3-7.7c0.4-1-0.1-2.2-1.1-2.6c-1-0.4-2.2,0.1-2.6,1.1C88.7,69.6,87.6,72.1,86.4,74.9z"/>
		<path d="M92.5,64.3l1.8,0.3c0.1,0,0.2,0,0.2,0c0.7,0,1.3-0.5,1.4-1.2l0.3-1.8c0.1-0.4,0-0.7-0.2-1c-0.2-0.3-0.5-0.5-0.9-0.6
			l-1.8-0.3c-0.8-0.1-1.5,0.4-1.6,1.1l-0.3,1.8C91.2,63.4,91.7,64.1,92.5,64.3z"/>
		<path d="M78.5,122.3c0.1,0,0.2,0,0.2,0c0.7,0,1.3-0.5,1.4-1.2l0.3-1.8c0.1-0.8-0.4-1.5-1.1-1.6l-1.8-0.3c-0.8-0.1-1.5,0.4-1.6,1.1
			l-0.3,1.8c-0.1,0.4,0,0.7,0.2,1c0.2,0.3,0.5,0.5,0.9,0.6L78.5,122.3z"/>
		<path d="M69.1,47.9l-1.8-0.3c-0.8-0.1-1.5,0.4-1.6,1.1l-0.3,1.8c-0.1,0.4,0,0.7,0.2,1c0.2,0.3,0.5,0.5,0.9,0.6l1.8,0.3
			c0.1,0,0.2,0,0.2,0c0.7,0,1.3-0.5,1.4-1.2l0.3-1.8C70.3,48.8,69.8,48,69.1,47.9z"/>
		<path d="M64.5,47.1c0.2,0,0.4,0,0.6-0.1c1.1-0.3,1.7-1.5,1.3-2.5c-0.7-2.3-0.9-4.7-0.4-7.1c0.6-3.1,2.3-6,4.8-8.1
			c0.9-0.7,1-2,0.3-2.9c-0.7-0.9-2-1-2.9-0.3c-3.2,2.7-5.4,6.4-6.2,10.5c-0.6,3.1-0.4,6.2,0.5,9.1C62.9,46.5,63.7,47.1,64.5,47.1z"
			/>
		<circle cx="130.7" cy="113.4" r="2.3"/>
		<path d="M51.4,125.1c-2.3-1-4.7-1.5-7.2-1.5c-10.3,0-18.7,8.4-18.7,18.7c0,0.3,0,0.6,0,0.9l0,0.2c0.1,1.1,1,1.9,2,1.9
			c0,0,0.1,0,0.1,0c1.1-0.1,2-1,1.9-2.1l0-0.3c0-0.2,0-0.4,0-0.6c0-8.1,6.6-14.7,14.7-14.7c2.7,0,5.4,0.8,7.7,2.2
			c0.6,0.4,1.3,0.4,2,0.1c0.6-0.3,1-0.9,1.1-1.6c0.8-8,7.1-14.3,14.9-15.4v5.1c0,1.1,0.9,2,2,2c1.1,0,2-0.9,2-2V94.9h2v19
			c0,1.1,0.9,2,2,2s2-0.9,2-2v-19h6.1V124c0,1.1,0.9,2,2,2c1.1,0,2-0.9,2-2v-6.7c0.5,0,0.9-0.1,1.4-0.1c5.9,0,11.5,3.2,14.5,8.3
			c0.5,0.8,1.5,1.2,2.4,0.9c1.7-0.6,3.5-0.9,5.3-0.9c9.2,0,16.8,7.5,16.8,16.8c0,0.2,0,0.4,0,0.6l0,0.4c-0.1,1.1,0.8,2.1,1.9,2.1
			c0,0,0.1,0,0.1,0c1.1,0,2-0.8,2-1.9l0-0.3c0-0.3,0-0.5,0-0.8c0-11.5-9.3-20.8-20.8-20.8c-1.7,0-3.4,0.2-5.1,0.6
			c-3.9-5.6-10.3-9-17.1-9c-0.5,0-0.9,0-1.4,0.1V98.2l12.3,12.3c0.4,0.4,0.9,0.6,1.4,0.6c0.2,0,0.4,0,0.5-0.1
			c0.7-0.2,1.2-0.7,1.4-1.5l7.4-28.8c2.4-9.5-0.2-19.6-6.8-26.8c0.5-3.4,0.8-6.9,0.5-10.7c-0.8-13.2-6.4-22.9-8.8-26.7
			c0-0.1-0.1-0.1-0.1-0.2c-4.4-6.5-10.1-12-16.9-16.1c-0.6-0.4-1.5-0.4-2.1,0c-6.6,4-12.1,9.3-16.4,15.5c-0.1,0.1-0.2,0.2-0.2,0.3
			l-0.1,0.2c0,0,0,0.1-0.1,0.1c-2.4,3.6-8.2,13.5-9,26.8c-0.2,3.8,0,7.3,0.5,10.7c-6.6,7.1-9.3,17.3-6.8,26.8l7.4,28.8
			c0.2,0.7,0.7,1.3,1.4,1.5c0.2,0,0.4,0.1,0.5,0.1c0.5,0,1-0.2,1.4-0.6l12.3-12.3v10.7C60.9,109.9,53.5,116.4,51.4,125.1z
			 M105.3,59.1c4.3,5.9,5.8,13.5,3.9,20.7l-6.5,25.4L90.9,93.2c0.6-1.1,1.2-2.2,1.8-3.3c0.1-0.1,0.1-0.3,0.2-0.4
			c0.5-1,1-1.9,1.5-2.9c1.1-2.3,2.2-4.6,3.2-6.9c1.4-3.2,2.7-6.3,3.9-9.3c0-0.1,0-0.1,0.1-0.2c0.3-0.7,0.5-1.3,0.8-2
			c0.1-0.1,0.1-0.3,0.2-0.4c0.2-0.6,0.5-1.2,0.7-1.9c0-0.1,0.1-0.2,0.1-0.3C104.1,63.5,104.8,61.3,105.3,59.1z M80,4.4
			c5.1,3.3,9.4,7.3,13,12c-8.4,1.9-17.3,1.8-25.6-0.4C70.8,11.5,75.1,7.6,80,4.4z M57.2,43.5c0.7-11.4,5.3-20.1,7.7-24
			c5.2,1.5,10.6,2.3,16.1,2.3c4.9,0,9.7-0.6,14.4-1.8c2.5,4.1,6.8,12.5,7.4,23.5c0.2,3.8,0,7.3-0.6,10.8c0,0,0,0,0,0
			c-0.2,0.9-0.3,1.7-0.5,2.6c-0.1,0.2-0.1,0.5-0.2,0.7c-0.2,0.6-0.3,1.3-0.5,1.9c-0.1,0.3-0.1,0.5-0.2,0.8c-0.2,0.8-0.5,1.6-0.7,2.4
			c-0.1,0.3-0.2,0.7-0.3,1c-0.2,0.5-0.3,1-0.5,1.5c-0.2,0.4-0.3,0.9-0.5,1.4c-0.1,0.3-0.3,0.7-0.4,1c-1.3,3.3-2.8,6.8-4.5,10.6
			c-1,2.4-2.1,4.7-3.3,7c-0.9,1.8-1.9,3.7-2.9,5.4h-0.3c0,0,0,0-0.1,0H72.7c0,0,0,0-0.1,0h-0.3c-0.9-1.7-1.8-3.4-2.7-5.1
			c-1.2-2.4-2.4-4.9-3.5-7.4c-1.7-3.8-3.2-7.3-4.5-10.7c-0.1-0.3-0.2-0.6-0.4-0.9c-0.2-0.5-0.3-0.9-0.5-1.4
			c-0.2-0.5-0.3-0.9-0.5-1.4c-0.1-0.4-0.2-0.7-0.4-1.1c-0.3-0.8-0.5-1.6-0.7-2.3C59.1,60,59,59.7,59,59.4c-0.2-0.6-0.3-1.2-0.5-1.8
			c-0.1-0.3-0.1-0.5-0.2-0.8c-0.2-0.8-0.4-1.7-0.5-2.5C57.2,50.9,56.9,47.3,57.2,43.5z M57.2,105.1l-6.5-25.4
			c-1.8-7.2-0.3-14.8,3.9-20.7c0.6,2.2,1.3,4.4,2,6.6c0,0.1,0.1,0.2,0.1,0.3c0.2,0.6,0.5,1.3,0.7,1.9c0,0.1,0.1,0.3,0.1,0.4
			c0.3,0.7,0.5,1.3,0.8,2c0,0,0,0.1,0.1,0.1c1.2,3,2.5,6,3.9,9.3c1,2.3,2.1,4.7,3.2,7c0.4,0.8,0.8,1.6,1.2,2.4
			c0.2,0.3,0.3,0.6,0.5,0.9c0.6,1.1,1.2,2.2,1.8,3.3L57.2,105.1z"/>
		<path d="M55.7,143.4c-0.1,1.1,0.8,2.1,1.9,2.1c1.1,0.1,2.1-0.8,2.1-1.9c0.5-8,7.1-14.3,15.2-14.3c4.8,0,9.2,2.2,12.1,6.1
			c0.5,0.7,1.4,1,2.2,0.7c8.2-2.3,16.7,1.4,20.8,8.4c0.4,0.6,1.1,1,1.8,1c0.3,0,0.7-0.1,1-0.3c1-0.6,1.3-1.8,0.7-2.8
			c-4.8-8.3-14.5-12.7-24.1-10.6c-3.7-4.2-8.9-6.6-14.5-6.6C64.8,125.3,56.3,133.2,55.7,143.4z"/>
		<path d="M124.3,90.9h4.4v16.8c0,1.1,0.9,2,2,2c1.1,0,2-0.9,2-2V90.6c0-2.1-1.7-3.8-3.8-3.8h-4l12.7-16.2l12.7,16.2h-3.7
			c-2.1,0-3.8,1.7-3.8,3.8v36.1c0,1.1,0.9,2,2,2s2-0.9,2-2V90.9h4c1.4,0,2.7-0.8,3.4-2.1c0.6-1.3,0.5-2.8-0.4-4l-13.3-17
			c-0.7-0.9-1.8-1.4-3-1.4c-1.2,0-2.2,0.5-3,1.4l-13.3,17c-0.9,1.1-1.1,2.7-0.4,4C121.6,90.1,122.9,90.9,124.3,90.9z"/>
		<circle cx="31.3" cy="100.9" r="2.3"/>
		<path d="M11.1,48.3h4V124c0,1.1,0.9,2,2,2s2-0.9,2-2V48c0-2.1-1.7-3.8-3.8-3.8h-3.7l12.7-16.2l12.7,16.2h-4
			c-2.1,0-3.8,1.7-3.8,3.8v47.1c0,1.1,0.9,2,2,2c1.1,0,2-0.9,2-2V48.3h4.4c1.4,0,2.7-0.8,3.4-2.1c0.6-1.3,0.5-2.8-0.4-4l-13.3-17
			c-0.7-0.9-1.8-1.4-3-1.4h0c-1.2,0-2.2,0.5-3,1.4l-13.3,17c-0.9,1.1-1.1,2.7-0.4,4C8.4,47.5,9.7,48.3,11.1,48.3z"/>
		<circle cx="132.7" cy="157.7" r="2.3"/>
		<path d="M126.6,155.7H23.2c-1.1,0-2,0.9-2,2c0,1.1,0.9,2,2,2h103.4c1.1,0,2-0.9,2-2C128.7,156.6,127.8,155.7,126.6,155.7z"/>
		<path d="M155,147.6H5c-1.1,0-2,0.9-2,2s0.9,2,2,2H155c1.1,0,2-0.9,2-2S156.1,147.6,155,147.6z"/>
	</g>
</g>
</svg>
