<?xml version="1.0" encoding="utf-8"?>
<!-- Generator: Adobe Illustrator 27.4.0, SVG Export Plug-In . SVG Version: 6.00 Build 0)  -->
<svg version="1.1" id="Layer_1" xmlns="http://www.w3.org/2000/svg" xmlns:xlink="http://www.w3.org/1999/xlink" x="0px" y="0px"
	 viewBox="0 0 160 160" style="enable-background:new 0 0 160 160;" xml:space="preserve">
<style type="text/css">
	.st0{fill:#007898;}
</style>
<g>
	<g>
		<g>
			<g>
				<path class="st0" d="M62.4,29.1c0,7.9,6.4,14.4,14.4,14.4h2.6c0.6,0,1,0.2,1.4,0.6l0-1c0,0-16.2-1-16.2-9.2
					c0-5.2-0.3-10-2.8-14.2C62.6,22.1,62.4,23.4,62.4,29.1z"/>
			</g>
			<g>
				<path class="st0" d="M76.8,47.3c-10,0-18.2-8.2-18.2-18.2v-5.3c0-7.6-9.3-11.4-14.6-6.1C5,56.7,7.6,54.4,6.4,54.4
					c-1.7,0-2.6-2.1-1.4-3.3l35-35C23.4,27.2,1.4,54.5,1.4,54.5l13,1l4.3,2.6l7.4,0.3l7.1,2.9l6-1.5l5.8,3.3l13.8-8.4l8.5,2.6
					l13.6-5.1l0-5.4C79.9,47.6,78.9,47.3,76.8,47.3z"/>
			</g>
		</g>
		<g>
			<g>
				
					<ellipse transform="matrix(0.1602 -0.9871 0.9871 0.1602 47.4267 96.4394)" class="st0" cx="80.4" cy="20.3" rx="8.9" ry="8.9"/>
			</g>
		</g>
		<g>
			<g>
				<path class="st0" d="M79.7,43c0,0,16.2-1,16.2-9.4c0-8.4,0.7-15.7,9.9-21.7c12.8-8.2,51.7,40.9,51.7,40.9l-11.4,2.7l-4.3,2.6
					l-7.4,0.3l-7.1,3l-6-1.6l-5.8,3.3l-13.8-8.5l-8.5,2.7l-13.6-5.2L79.7,43z"/>
			</g>
		</g>
	</g>
	<g>
		<g>
			<path d="M61.1,131.2c-0.9-0.3-1.9-0.7-2.8-1c-2.4-1-0.9-4.5,1.4-3.6c0.9,0.3,1.8,0.7,2.6,1c1,0.3,1.5,1.4,1.2,2.5
				C63.3,131,62.2,131.6,61.1,131.2z M49.4,125.7c-0.8-0.5-1.7-1.1-2.5-1.6c-2.1-1.4,0.1-4.6,2.2-3.2c0.8,0.5,1.6,1,2.4,1.5
				c0.9,0.6,1.2,1.7,0.6,2.7C51.5,126,50.3,126.3,49.4,125.7z M39.2,117.8c-0.7-0.7-1.4-1.4-2.1-2.1c-1.7-1.9,1.1-4.5,2.8-2.6
				c0.6,0.7,1.3,1.3,2,2c0.8,0.7,0.8,2,0,2.7C41.2,118.5,40,118.5,39.2,117.8z M30.9,107.8c-0.5-0.8-1.1-1.7-1.6-2.5
				c-1.3-2.2,2-4.2,3.3-2c0.5,0.8,1,1.6,1.5,2.4c0.6,0.9,0.3,2.1-0.5,2.7C32.7,108.9,31.5,108.7,30.9,107.8z M25,96.3
				c-0.4-0.9-0.7-1.9-1-2.8c-0.8-2.4,2.9-3.6,3.7-1.2c0.3,0.9,0.6,1.8,0.9,2.6C29.5,97.3,25.9,98.7,25,96.3z M21.7,83.7
				c-0.1-1-0.3-2-0.4-3c-0.2-2.5,3.6-2.9,3.8-0.4c0.1,0.9,0.2,1.9,0.3,2.8c0.2,1.1-0.6,2-1.6,2.2C22.9,85.5,21.9,84.8,21.7,83.7z
				 M21.3,70.8c0.1-1,0.2-2,0.3-3c0.3-2.5,4.1-2.1,3.8,0.5c-0.1,0.9-0.2,1.9-0.3,2.8C25,73.6,21.1,73.4,21.3,70.8z"/>
		</g>
	</g>
	<g>
		<g>
			<path d="M99,127.3c0.9-0.3,1.8-0.7,2.6-1c2.4-1,3.8,2.6,1.5,3.6c-0.9,0.4-1.9,0.7-2.8,1.1C97.9,131.8,96.6,128.2,99,127.3z
				 M109.9,122c0.8-0.5,1.6-1,2.3-1.6c2.1-1.5,4.3,1.7,2.2,3.2c-0.8,0.6-1.7,1.1-2.5,1.7C109.8,126.7,107.7,123.4,109.9,122z
				 M119.4,114.5c0.7-0.6,1.3-1.3,1.9-2c1.7-1.9,4.6,0.7,2.9,2.6c-0.7,0.7-1.4,1.5-2.1,2.2C120.3,119,117.6,116.3,119.4,114.5z
				 M127,105.1c0.5-0.8,1-1.6,1.5-2.4c1.3-2.2,4.6-0.3,3.4,1.9c-0.5,0.9-1,1.7-1.6,2.6C128.9,109.3,125.6,107.2,127,105.1z
				 M132.4,94.3c0.3-0.9,0.6-1.8,0.9-2.7c0.8-2.4,4.4-1.3,3.7,1.1c-0.3,1-0.6,1.9-1,2.8C135.1,98,131.5,96.7,132.4,94.3z
				 M135.3,82.5c0.1-0.9,0.2-1.9,0.3-2.8c0.2-2.6,4.1-2.2,3.8,0.3c-0.1,1-0.2,2-0.3,3C138.8,85.5,135,85,135.3,82.5z M135.6,70.4
				c-0.1-0.9-0.2-1.9-0.3-2.8c-0.3-2.5,3.5-3.1,3.8-0.5c0.1,1,0.2,2,0.3,3c0.1,1.1-0.7,2-1.8,2.1C136.6,72.3,135.7,71.5,135.6,70.4z
				"/>
		</g>
	</g>
	<g>
		<g>
			<path d="M51.7,33.6c-2.5,0-2.5-3.8,0-3.8C54.2,29.8,54.2,33.6,51.7,33.6z"/>
		</g>
	</g>
	<g>
		<g>
			<path d="M78.5,149.3v-120c0-1.1,0.9-1.9,1.9-1.9c1.1,0,1.9,0.9,1.9,1.9v120C82.3,151.8,78.5,151.8,78.5,149.3z"/>
		</g>
	</g>
	<g>
		<g>
			<path d="M80.4,31.2c-6,0-10.8-4.9-10.8-10.8S74.4,9.5,80.4,9.5s10.8,4.9,10.8,10.8S86.4,31.2,80.4,31.2z M80.4,13.4
				c-3.8,0-7,3.1-7,7c0,3.8,3.1,7,7,7c3.8,0,7-3.1,7-7C87.4,16.5,84.2,13.4,80.4,13.4z"/>
		</g>
	</g>
	<g>
		<g>
			<path d="M142.6,53.8l-19-19c-1.8-1.8,0.9-4.5,2.7-2.7l19,19c2.7,2.7,6.8,3.1,9.9,1.2l-36.6-36.6c-2.2-2.2-5-3.4-8.1-3.4
				c-6.3,0-11.5,5.1-11.5,11.5v5.3c0,8.4-6.9,15.3-15.3,15.3h-3.5c-2.6,0-2.6-3.9,0-3.9h3.5c6.3,0,11.5-5.1,11.5-11.5v-5.3
				c0-8.4,6.9-15.3,15.3-15.3c4.1,0,7.9,1.6,10.8,4.5L159.4,51c0.8,0.8,0.8,2,0,2.7C154.8,58.4,147.2,58.4,142.6,53.8z"/>
		</g>
	</g>
	<g>
		<g>
			<path d="M109.9,44.8c-0.3,0-0.6-0.1-0.9-0.2c-0.9-0.5-1.3-1.7-0.8-2.6c2-3.8,3.1-8,3.2-12.3c0-1.1,0.9-1.9,2-1.9
				c1.1,0,1.9,0.9,1.9,2c-0.1,4.9-1.4,9.8-3.7,14.1C111.3,44.4,110.6,44.8,109.9,44.8z"/>
		</g>
	</g>
	<g>
		<g>
			<path d="M130.9,56.6l-10.5-10.5c-1.8-1.8,0.9-4.5,2.7-2.7l10.5,10.5c2.7,2.7,7,3.1,10.1,1.1l-15.1-15.1c-1.8-1.8,0.9-4.5,2.7-2.7
				c18,17.9,17.1,16.8,17.1,17.9c0,0.6-0.2,1-0.6,1.4C143.3,61.3,135.6,61.3,130.9,56.6z"/>
		</g>
	</g>
	<g>
		<g>
			<path d="M119.3,59.4l-6.7-6.7c-0.8-0.8-0.8-2,0-2.7c0.8-0.8,2-0.8,2.7,0l6.7,6.7c2.8,2.8,7,3.1,10.1,1.1l-11.4-11.4
				c-1.8-1.8,0.9-4.5,2.7-2.7C137.5,57.6,137,56.9,137,58c0,0.6-0.2,1-0.6,1.4C131.7,64.1,124,64.1,119.3,59.4z"/>
		</g>
	</g>
	<g>
		<g>
			<path d="M106.2,60.8l-5.2-5.2c-0.8-0.8-0.8-2,0-2.7c0.8-0.8,2-0.8,2.7,0c5.3,5.3,6.8,7.6,11,7.6c1.6,0,3.1-0.4,4.3-1.2l-6.5-6.5
				c-0.8-0.8-0.8-2,0-2.7c0.8-0.8,2-0.8,2.7,0l8,8C126.6,61.3,114.1,68.7,106.2,60.8z"/>
		</g>
	</g>
	<g>
		<g>
			<path d="M0.5,51.6l38.6-38.6C42.1,10,45.9,8.4,50,8.4c8.4,0,15.3,6.9,15.3,15.3v5.3c0,6.3,5.1,11.5,11.5,11.5h3.5
				c2.6,0,2.6,3.9,0,3.9h-3.5c-8.4,0-15.3-6.9-15.3-15.3v-5.3c0-10.2-12.4-15.3-19.6-8.1L4.8,52.8c3.1,1.9,7.2,1.5,9.9-1.2
				l19.5-19.5c1.8-1.8,4.5,0.9,2.7,2.7L17.4,54.3C9.7,62.1-2.7,54.8,0.5,51.6z"/>
		</g>
	</g>
	<g>
		<g>
			<path d="M12.5,53.7L29,37.2c1.8-1.8,4.5,0.9,2.7,2.7l-15,15c3.2,2,7.4,1.6,10.1-1.1l10.4-10.4c1.8-1.8,4.5,0.9,2.7,2.7L29.6,56.5
				C21.8,64.4,9.2,57,12.5,53.7z"/>
		</g>
	</g>
	<g>
		<g>
			<path d="M24.1,56.6L37,43.7c1.8-1.8,4.5,0.9,2.7,2.7L28.3,57.8c3.1,2,7.4,1.6,10.1-1.1l6.7-6.7c1.8-1.8,4.5,0.9,2.7,2.7l-6.7,6.7
				C33.3,67.3,20.8,59.9,24.1,56.6z"/>
		</g>
	</g>
	<g>
		<g>
			<path d="M37.2,58l8-8c1.8-1.8,4.5,0.9,2.7,2.7l-6.5,6.5c3.2,2,7.4,1.6,10.1-1.1l5.2-5.2c1.8-1.8,4.5,0.9,2.7,2.7l-5.2,5.2
				C46.4,68.7,33.9,61.3,37.2,58z"/>
		</g>
	</g>
	<g>
		<g>
			<path d="M84.8,76.2c7.5-3.4,10.5-6.3,10.5-10c0-2.6,3.9-2.6,3.9,0c0,6.8-6.1,10.5-12.8,13.5C84.1,80.8,82.5,77.3,84.8,76.2z"/>
		</g>
	</g>
	<g>
		<g>
			<path d="M84,132.3c-0.6-0.9-0.4-2.1,0.5-2.7c4.5-3.1,6.4-5.6,6.4-8.5c0-12-27.8-12.2-27.8-27.4c0-6.4,5.7-10.1,10.7-12.5
				c2.3-1.1,4,2.3,1.7,3.5c-6,3-8.5,5.7-8.5,9.1c0,5.7,6.2,8.7,12.8,12c7.4,3.6,15,7.4,15,15.5c0,5.5-4.1,9-8.1,11.7
				C85.8,133.5,84.6,133.2,84,132.3z"/>
		</g>
	</g>
	<g>
		<g>
			<path d="M80,151.6c-6.5,0-11-7.3-7.1-13.1c1.4-2.1,4.6,0.1,3.2,2.2c-1.9,2.8-0.2,7,4.4,7c2.6,0,4.7-2.1,4.7-4.7
				c0-6.9-19.4-10-19.4-21.9c0-6.2,4.9-9.9,8.5-12.1c2.2-1.3,4.2,2,2,3.3c-4.7,2.8-6.7,5.4-6.7,8.8C69.6,130.5,89,133,89,143
				C89,147.4,85.7,151.6,80,151.6z"/>
		</g>
	</g>
	<g>
		<g>
			<path d="M84.6,103.7c5.3-2.8,8.9-5.6,8.9-10c0-11.9-32.2-12.1-32.2-27.4c0-2.6,3.9-2.6,3.9,0c0,11.9,32.2,12.1,32.2,27.4
				c0,6.7-5.5,10.5-10.9,13.4C84.2,108.3,82.4,104.9,84.6,103.7z"/>
		</g>
	</g>
	<g>
		<g>
			<path d="M67.3,72.7c-3.3,0-5.9-2.7-5.9-5.9c0-3.3,2.7-5.9,5.9-5.9c3.3,0,5.9,2.7,5.9,5.9C73.2,70.1,70.5,72.7,67.3,72.7z
				 M65.2,66.8c0,2.8,4.2,2.8,4.2,0C69.3,64,65.2,64,65.2,66.8z"/>
		</g>
	</g>
	<g>
		<g>
			<path d="M93.3,72.7c-3.3,0-5.9-2.7-5.9-5.9c0-3.3,2.7-5.9,5.9-5.9c3.3,0,5.9,2.7,5.9,5.9C99.2,70.1,96.6,72.7,93.3,72.7z
				 M91.2,66.8c0,2.8,4.2,2.8,4.2,0C95.4,64,91.2,64,91.2,66.8z"/>
		</g>
	</g>
	<g>
		<g>
			<path d="M82.1,54.6c-1-1.2-2.8-1.2-3.8,0c-8.5,10.7-28.6,1.1-28.6-15.4c0-2.6,3.9-2.6,3.9,0c0,13.4,15.8,20.4,21.7,13
				c2.5-3.2,7.3-3.2,9.8,0c4.9,6.1,15.4,2.2,19.6-5c0.5-0.9,1.7-1.2,2.6-0.7C112.6,49.6,92.3,67.4,82.1,54.6z"/>
		</g>
	</g>
</g>
</svg>
