<svg id="Group_132" data-name="Group 132" xmlns="http://www.w3.org/2000/svg" xmlns:xlink="http://www.w3.org/1999/xlink" width="316.401" height="60" viewBox="0 0 316.401 60" fill="#007898">
  <defs>
    <clipPath id="clip-path">
      <rect id="Rectangle_312" data-name="Rectangle 312" width="316.401" height="60" fill="#007898"/>
    </clipPath>
  </defs>
  <g id="Group_131" data-name="Group 131" clip-path="url(#clip-path)">
    <path id="Path_161" data-name="Path 161" d="M341.363,50.947a2.811,2.811,0,0,0,.966-2.061,2.161,2.161,0,0,0-.65-1.709,2.6,2.6,0,0,0-3.491.2,2.753,2.753,0,0,0-.761,2.006,7.977,7.977,0,0,0,1.1,3.343,10.228,10.228,0,0,0,2.841-1.783" transform="translate(-196.199 -27.097)" fill="#007898"/>
    <path id="Path_162" data-name="Path 162" d="M100.228,63.951a4.172,4.172,0,0,0-3.25,1.244,5.082,5.082,0,0,0-1.337,2.823h9.044a4.688,4.688,0,0,0-1.225-2.823,4.03,4.03,0,0,0-3.232-1.244" transform="translate(-55.611 -37.184)" fill="#007898"/>
    <path id="Path_163" data-name="Path 163" d="M226.205,65.06a4.239,4.239,0,0,0-3.436,1.541,5.866,5.866,0,0,0-1.244,3.807,5.737,5.737,0,0,0,1.263,3.789,4.6,4.6,0,0,0,6.872,0,5.809,5.809,0,0,0,1.263-3.807,5.709,5.709,0,0,0-1.282-3.807,4.261,4.261,0,0,0-3.436-1.523" transform="translate(-128.808 -37.83)" fill="#007898"/>
    <path id="Path_164" data-name="Path 164" d="M0,60H316.4V0H0ZM30.094,39.971q-2.6,2.247-7.54,2.247-6.778,0-10.734-4.049l2.934-4.1a10.774,10.774,0,0,0,8.06,3.436,5.556,5.556,0,0,0,3.25-.817,2.3,2.3,0,0,0,1.151-1.913,2.066,2.066,0,0,0-1.077-1.8,7.507,7.507,0,0,0-2.693-.984,32.139,32.139,0,0,1-3.51-.873,30.815,30.815,0,0,1-3.528-1.3,6.4,6.4,0,0,1-3.789-6.091,6.944,6.944,0,0,1,2.618-5.5,10.373,10.373,0,0,1,7-2.21,14.065,14.065,0,0,1,9.9,3.529L29.128,23.5a10.451,10.451,0,0,0-7.373-2.786,4.548,4.548,0,0,0-2.674.687,2.051,2.051,0,0,0-.947,1.746q0,1.913,3.659,2.582a30.39,30.39,0,0,1,7.132,2.247,6.525,6.525,0,0,1,3.77,6.091,7.427,7.427,0,0,1-2.6,5.906M53.754,34.1H40.1a4.661,4.661,0,0,0,1.634,3.046A5.38,5.38,0,0,0,45.4,38.374a7.956,7.956,0,0,0,2.656-.5A5.928,5.928,0,0,0,50.3,36.535l2.117,3.12a10.313,10.313,0,0,1-7.3,2.563,10,10,0,0,1-7.3-2.656,9.135,9.135,0,0,1-2.767-6.871,9.681,9.681,0,0,1,2.674-6.983,9.016,9.016,0,0,1,6.8-2.786,8.635,8.635,0,0,1,6.686,2.8,10.471,10.471,0,0,1,2.544,7.317ZM74.48,41.753H69.652V30.648q0-3.417-3.4-3.417a4.9,4.9,0,0,0-4.178,2.154V41.753H57.246V23.386h4.829v2.4a7.952,7.952,0,0,1,6.426-2.86,5.942,5.942,0,0,1,4.475,1.56,5.949,5.949,0,0,1,1.5,4.308Zm9.6,0H79.253V23.386h4.829ZM83.71,20.545a2.727,2.727,0,0,1-2.024.854,2.912,2.912,0,0,1-2.08-.854,2.883,2.883,0,0,1,4.1-4.049,2.7,2.7,0,0,1,.835,2.006,2.819,2.819,0,0,1-.835,2.043m20.763,18.869a10.3,10.3,0,0,1-14.133,0A9.654,9.654,0,0,1,87.7,32.542a9.566,9.566,0,0,1,2.637-6.834,10.355,10.355,0,0,1,14.133,0,9.53,9.53,0,0,1,2.656,6.834,9.659,9.659,0,0,1-2.656,6.871m16.919-11.774a7.77,7.77,0,0,0-1.541-.111,5.823,5.823,0,0,0-2.377.613,4.4,4.4,0,0,0-1.95,1.486V41.753h-4.829V23.386h4.829v2.507a7.983,7.983,0,0,1,2.618-2.136,6.94,6.94,0,0,1,3.25-.835Zm28.433,14.114q-.8-.761-1.913-1.894a11.086,11.086,0,0,1-6.834,2.359,9.553,9.553,0,0,1-6.092-1.913,6.572,6.572,0,0,1-2.358-5.441,6.407,6.407,0,0,1,1.467-4.327,12.652,12.652,0,0,1,3.974-2.971,12.291,12.291,0,0,1-1.671-5.609,5.342,5.342,0,0,1,2.043-4.2,7.549,7.549,0,0,1,5.051-1.746,7.9,7.9,0,0,1,4.9,1.449,4.788,4.788,0,0,1,1.913,4.049,5.066,5.066,0,0,1-1.783,4.086,19.57,19.57,0,0,1-4.439,2.73q1.578,2.062,2.86,3.584,1.281,1.5,1.467,1.746a20.147,20.147,0,0,0,2.321-4.9l3.882,1.783a34.209,34.209,0,0,1-3.547,6.129q2.563,2.73,4.922,5.089Zm165.4,17.132H167.136V1.155H315.225Z" fill="#007898"/>
    <path id="Path_165" data-name="Path 165" d="M329.173,76.84a3.829,3.829,0,0,0,1.151,2.879,3.975,3.975,0,0,0,2.879,1.114,5.986,5.986,0,0,0,3.529-1.3,74.744,74.744,0,0,1-5.367-6.574,4.572,4.572,0,0,0-2.191,3.882" transform="translate(-191.4 -42.422)" fill="#007898"/>
    <path id="Path_166" data-name="Path 166" d="M488.669,45.19a2.58,2.58,0,0,0,1.916-.809,2.667,2.667,0,0,0,.791-1.933,2.552,2.552,0,0,0-.791-1.9,2.629,2.629,0,0,0-1.933-.791,2.7,2.7,0,0,0-1.951,4.622,2.755,2.755,0,0,0,1.968.809" transform="translate(-282.526 -23.118)" fill="#007898"/>
    <rect id="Rectangle_311" data-name="Rectangle 311" width="4.57" height="17.382" transform="translate(203.841 23.953)" fill="#007898"/>
    <path id="Path_167" data-name="Path 167" d="M444.232,62.1a11.347,11.347,0,0,0,3.532-8.682,11.294,11.294,0,0,0-3.532-8.717,12.978,12.978,0,0,0-9.21-3.3h-9.473V65.406h9.473a12.9,12.9,0,0,0,9.21-3.3M430.664,45.9h4.359a7.237,7.237,0,0,1,5.536,2.109,8.17,8.17,0,0,1-.053,10.739,7.179,7.179,0,0,1-5.484,2.162h-4.359Z" transform="translate(-247.439 -24.071)" fill="#007898"/>
    <path id="Path_168" data-name="Path 168" d="M604.2,70.4a3.992,3.992,0,0,1-2.25.51,8.279,8.279,0,0,1-3.216-.721,9.171,9.171,0,0,1-2.724-1.652l-1.986,3.2a9.506,9.506,0,0,0,3.427,1.986,13.139,13.139,0,0,0,4.341.72,8.647,8.647,0,0,0,5.536-1.564,4.865,4.865,0,0,0,1.986-4.025,5.2,5.2,0,0,0-.756-2.795,4.374,4.374,0,0,0-1.9-1.687,19.858,19.858,0,0,0-5.009-1.459q-2.619-.422-2.619-1.6a1.357,1.357,0,0,1,.738-1.142,3.869,3.869,0,0,1,2.144-.492,7.154,7.154,0,0,1,2.777.58,6.476,6.476,0,0,1,2.215,1.441l1.845-3.146a10.5,10.5,0,0,0-6.661-2.373,8.633,8.633,0,0,0-5.589,1.582,4.923,4.923,0,0,0-1.9,3.9,4.56,4.56,0,0,0,.773,2.707,4.682,4.682,0,0,0,1.9,1.6,16.86,16.86,0,0,0,2.5.861q1.336.352,2.478.545a5.593,5.593,0,0,1,1.916.58,1.3,1.3,0,0,1,.773,1.178A1.5,1.5,0,0,1,604.2,70.4" transform="translate(-345.4 -32.666)" fill="#007898"/>
    <path id="Path_169" data-name="Path 169" d="M515.342,74.44q4.605,0,6.872-3.181L519.226,68.5a4.118,4.118,0,0,1-3.533,1.863,4.611,4.611,0,0,1-3.533-1.406,5.193,5.193,0,0,1-1.318-3.673,5.107,5.107,0,0,1,1.3-3.638,4.652,4.652,0,0,1,3.568-1.389,4.019,4.019,0,0,1,3.515,1.863l2.988-2.812a7.633,7.633,0,0,0-6.591-3.129,9.371,9.371,0,0,0-6.907,2.566,9.629,9.629,0,0,0,.018,13.146,8.959,8.959,0,0,0,6.608,2.548" transform="translate(-294.295 -32.666)" fill="#007898"/>
    <path id="Path_170" data-name="Path 170" d="M645.147,74.44a8.79,8.79,0,0,0,6.7-2.654,9.143,9.143,0,0,0,2.513-6.5,9.02,9.02,0,0,0-2.513-6.468,9.8,9.8,0,0,0-13.375,0,9.674,9.674,0,0,0,0,12.971,8.732,8.732,0,0,0,6.679,2.654M641.9,61.715a4.371,4.371,0,0,1,6.5-.018,5.4,5.4,0,0,1,1.213,3.6,5.5,5.5,0,0,1-1.2,3.6,4.353,4.353,0,0,1-6.5,0,5.428,5.428,0,0,1-1.2-3.586,5.551,5.551,0,0,1,1.177-3.6" transform="translate(-369.792 -32.666)" fill="#007898"/>
    <path id="Path_171" data-name="Path 171" d="M692.529,62.3a4.642,4.642,0,0,1,3.954-2.039q3.216,0,3.216,3.234V74h4.57V61.734a5.063,5.063,0,0,0-5.66-5.554,7.525,7.525,0,0,0-6.081,2.707V56.619h-4.57V74h4.57Z" transform="translate(-400.02 -32.666)" fill="#007898"/>
    <path id="Path_172" data-name="Path 172" d="M556.222,60.942l2.091-2.232,4.6,6.7h5.729l-7.1-9.508,6.872-7.874h-5.607l-6.591,7.733V41.4h-4.57V65.406h4.57Z" transform="translate(-320.763 -24.071)" fill="#007898"/>
  </g>
</svg>
