<?xml version="1.0" encoding="utf-8"?>
<!-- Generator: Adobe Illustrator 27.4.0, SVG Export Plug-In . SVG Version: 6.00 Build 0)  -->
<svg version="1.1" id="Layer_1" xmlns="http://www.w3.org/2000/svg" xmlns:xlink="http://www.w3.org/1999/xlink" x="0px" y="0px"
	 viewBox="0 0 160 160" style="enable-background:new 0 0 160 160;" xml:space="preserve">
<g>
	<g>
		<path d="M138.7,114.5H65.4c-0.8,0-1.6-0.5-1.9-1.3L34.9,28.9h-7c-1.1,0-2-0.9-2-2s0.9-2,2-2h8.4c0.8,0,1.6,0.5,1.9,1.3l28.6,84.3
			h70.4l18.1-59.3H53c-1.1,0-2-0.9-2-2c0-1.1,0.9-2,2-2h105c0.6,0,1.2,0.3,1.6,0.8c0.4,0.5,0.5,1.2,0.3,1.8l-19.3,63.2
			C140.3,114,139.6,114.5,138.7,114.5z"/>
	</g>
	<g>
		<path d="M19.1,35.5H8.8c-4.2,0-7.8-2.9-8.6-6.8c-0.5-2.6,0.1-5.2,1.8-7.2c1.6-2,4-3.1,6.6-3.1h10.3c4.2,0,7.8,2.9,8.6,6.8
			c0.5,2.6-0.1,5.2-1.8,7.2C24.1,34.4,21.7,35.5,19.1,35.5z M8.6,22.3c-1.4,0-2.7,0.6-3.6,1.7c-0.9,1.1-1.2,2.5-0.9,3.9
			c0.4,2.1,2.4,3.6,4.8,3.6h10.3c1.4,0,2.7-0.6,3.6-1.7c0.9-1.1,1.2-2.5,0.9-3.9c-0.4-2.1-2.4-3.6-4.8-3.6H8.6z"/>
	</g>
	<g>
		<path d="M83.3,144.8c-6.9,0-12.5-5.6-12.5-12.5c0-6.9,5.6-12.5,12.5-12.5c6.9,0,12.5,5.6,12.5,12.5
			C95.8,139.2,90.2,144.8,83.3,144.8z M83.3,123.7c-4.7,0-8.6,3.8-8.6,8.6c0,4.7,3.8,8.6,8.6,8.6c4.7,0,8.6-3.8,8.6-8.6
			C91.9,127.6,88,123.7,83.3,123.7z"/>
	</g>
	<g>
		<path d="M125.4,144.8c-6.9,0-12.5-5.6-12.5-12.5c0-6.9,5.6-12.5,12.5-12.5s12.5,5.6,12.5,12.5
			C137.9,139.2,132.3,144.8,125.4,144.8z M125.4,123.7c-4.7,0-8.6,3.8-8.6,8.6c0,4.7,3.8,8.6,8.6,8.6s8.6-3.8,8.6-8.6
			C134,127.6,130.2,123.7,125.4,123.7z"/>
	</g>
	<g>
		<path d="M114.9,134.3H93.8c-1.1,0-2-0.9-2-2c0-1.1,0.9-2,2-2h21.1c1.1,0,2,0.9,2,2C116.9,133.4,116,134.3,114.9,134.3z"/>
	</g>
	<g>
		<path d="M143.9,134.3H136c-1.1,0-2-0.9-2-2c0-1.1,0.9-2,2-2h7.9c1.1,0,2,0.9,2,2C145.8,133.4,145,134.3,143.9,134.3z"/>
	</g>
	<g>
		<path d="M72.8,134.3H61.4c-6.4,0-11.6-5.2-11.6-11.6v-0.4c0-6.4,5.2-11.6,11.6-11.6h3.5c1.1,0,2,0.9,2,2c0,1.1-0.9,2-2,2h-3.5
			c-4.2,0-7.7,3.5-7.7,7.7v0.4c0,4.2,3.5,7.7,7.7,7.7h11.4c1.1,0,2,0.9,2,2C74.7,133.4,73.8,134.3,72.8,134.3z"/>
	</g>
</g>
</svg>
