<?xml version="1.0" encoding="utf-8"?>
<!-- Generator: Adobe Illustrator 27.4.0, SVG Export Plug-In . SVG Version: 6.00 Build 0)  -->
<svg version="1.1" id="Layer_1" xmlns="http://www.w3.org/2000/svg" xmlns:xlink="http://www.w3.org/1999/xlink" x="0px" y="0px"
	 viewBox="0 0 160 160" style="enable-background:new 0 0 160 160;" xml:space="preserve">
<style type="text/css">
	.st0{display:none;fill:#007898;}
</style>
<g>
	<path class="st0" d="M102.4,155.6c-3.7,3.7-9.6,3.7-13.3,0l-38-38l13.3-13.3l38,38C106.1,146,106.1,151.9,102.4,155.6z"/>
	<path class="st0" d="M41.2,115.6c0,0,1-1.1,2.1-2.2L22.1,92.1c-0.7-0.7-1.8-0.2-1.8,0.7v44.6h37.2c0.9,0,1.4-1.1,0.7-1.8
		l-17.1-17.1C40.3,117.8,40.3,116.4,41.2,115.6z"/>
	<path class="st0" d="M20.3,2.9v50.6L31,60.6c0.4,0.2,0.6,0.6,0.8,1l3.8,9.1c0.2,0.4,0.4,0.7,0.6,1l2.6,2.7V33.5c0-6.6,5.4-12,12-12
		h73.3c6.6,0,12,5.4,12,12v73.3c0,6.6-5.4,12-12,12H91.8c-0.6,0-0.8,0.7-0.4,1.1c3.3,3.3,13.7,13.7,16.6,16.7c0.5,0.5,1.2,0.8,2,0.8
		h44.9V2.9H20.3z"/>
	<rect x="73.3" y="37.2" class="st0" width="30.1" height="31.5"/>
	<g>
		<path d="M52.7,114.1c-0.6,0-1.1-0.2-1.5-0.6L21.9,83.7L13,79.9c-0.4-0.2-0.7-0.5-1-0.8L2.6,63.9C2,63.1,2.2,62,2.8,61.3L9,55
			c0.7-0.7,1.9-0.9,2.7-0.3l14.8,9.7c0.4,0.2,0.6,0.6,0.8,1l3.8,9l29.3,29.8c0.8,0.8,0.8,2.2,0,3c-0.8,0.8-2.2,0.8-3,0L27.7,77.1
			c-0.2-0.2-0.3-0.4-0.4-0.7l-3.7-8.8l-12.7-8.4l-3.7,3.8l8.3,13.1l8.6,3.7c0.3,0.1,0.5,0.3,0.7,0.5l29.6,30.1c0.8,0.8,0.8,2.2,0,3
			C53.7,113.9,53.2,114.1,52.7,114.1z"/>
	</g>
	<g>
		<path d="M95.5,160c-3.1,0-6-1.2-8.2-3.4l-38-38c-0.8-0.8-0.8-2.2,0-3l13.3-13.3c0.8-0.8,2.2-0.8,3,0l38,38
			c4.5,4.5,4.5,11.9,0,16.4C101.4,158.8,98.5,160,95.5,160z M53.8,117.1l36.5,36.5c1.4,1.4,3.2,2.1,5.1,2.1s3.8-0.8,5.1-2.1
			c2.8-2.8,2.8-7.5,0-10.3l-36.5-36.5L53.8,117.1z"/>
	</g>
	<g>
		<path d="M155.6,138.9h-44.4c-1.2,0-2.1-1-2.1-2.1c0-1.2,1-2.1,2.1-2.1h42.2V4.3H23.1v48c0,1.2-1,2.1-2.1,2.1c-1.2,0-2.1-1-2.1-2.1
			V2.1C18.9,1,19.8,0,21,0h134.6c1.2,0,2.1,1,2.1,2.1v134.6C157.8,137.9,156.8,138.9,155.6,138.9z"/>
	</g>
	<g>
		<path d="M56.8,138.9H21c-1.2,0-2.1-1-2.1-2.1v-43c0-1.2,1-2.1,2.1-2.1c1.2,0,2.1,1,2.1,2.1v40.8h33.7c1.2,0,2.1,1,2.1,2.1
			C58.9,137.9,58,138.9,56.8,138.9z"/>
	</g>
	<g>
		<path d="M125.5,120.3H92.6c-1.2,0-2.1-1-2.1-2.1s1-2.1,2.1-2.1h32.9c5.1,0,9.3-4.2,9.3-9.3V32.2c0-5.1-4.2-9.3-9.3-9.3H51.1
			c-5.1,0-9.3,4.2-9.3,9.3v41.5c0,1.2-1,2.1-2.1,2.1c-1.2,0-2.1-1-2.1-2.1V32.2c0-7.5,6.1-13.6,13.6-13.6h74.5
			c7.5,0,13.6,6.1,13.6,13.6v74.5C139.1,114.2,133,120.3,125.5,120.3z"/>
	</g>
	<g>
		<path d="M104.1,101.7H72.6c-1.2,0-2.1-1-2.1-2.1V39.4c0-1.2,1-2.1,2.1-2.1h31.5c1.2,0,2.1,1,2.1,2.1v60.1
			C106.2,100.7,105.2,101.7,104.1,101.7z M74.7,97.4h27.2V41.5H74.7V97.4z"/>
	</g>
	<g>
		<path d="M101.2,70.2H75.4c-1.2,0-2.1-1-2.1-2.1s1-2.1,2.1-2.1h25.8c1.2,0,2.1,1,2.1,2.1S102.4,70.2,101.2,70.2z"/>
	</g>
	<g>
		<path d="M88.3,91.7c-4.3,0-7.9-3.5-7.9-7.9c0-4.3,3.5-7.9,7.9-7.9c4.3,0,7.9,3.5,7.9,7.9C96.2,88.1,92.6,91.7,88.3,91.7z
			 M88.3,80.2c-2,0-3.6,1.6-3.6,3.6s1.6,3.6,3.6,3.6c2,0,3.6-1.6,3.6-3.6S90.3,80.2,88.3,80.2z"/>
	</g>
	<g>
		<path d="M88.3,61.6c-1.2,0-2.1-1-2.1-2.1v-10c0-1.2,1-2.1,2.1-2.1c1.2,0,2.1,1,2.1,2.1v10C90.5,60.6,89.5,61.6,88.3,61.6z"/>
	</g>
</g>
</svg>
