<?xml version="1.0" encoding="utf-8"?>
<!-- Generator: Adobe Illustrator 27.4.0, SVG Export Plug-In . SVG Version: 6.00 Build 0)  -->
<svg version="1.1" id="Layer_1" xmlns="http://www.w3.org/2000/svg" xmlns:xlink="http://www.w3.org/1999/xlink" x="0px" y="0px"
	 viewBox="0 0 160 160" style="enable-background:new 0 0 160 160;" xml:space="preserve">
<g id="factory">
	<g>
		<path d="M96.8,151.1h-86c-1.2,0-2.1-0.9-2.1-2.1v-48.3c0-0.6,0.3-1.2,0.7-1.6l14.3-12.6c0.6-0.5,1.5-0.7,2.3-0.3
			c0.8,0.3,1.2,1.1,1.2,1.9l0,7.9L38,86.6c0.6-0.5,1.5-0.7,2.3-0.3c0.8,0.3,1.2,1.1,1.2,1.9l0,8l10.9-9.5c0.6-0.5,1.5-0.7,2.3-0.3
			c0.8,0.3,1.2,1.1,1.2,1.9l0,7.9l10.9-9.5c0.6-0.5,1.5-0.7,2.3-0.3c0.8,0.3,1.2,1.1,1.2,1.9l0,8L81,86.6c0.6-0.5,1.5-0.7,2.3-0.3
			c0.8,0.3,1.2,1.1,1.2,1.9l0,8l10.9-9.5c0.6-0.5,1.5-0.7,2.2-0.3c0.8,0.3,1.2,1.1,1.2,1.9V149C98.9,150.2,97.9,151.1,96.8,151.1z
			 M12.8,146.9h81.8V92.8l-10.9,9.5c-0.6,0.5-1.5,0.7-2.3,0.3c-0.8-0.3-1.2-1.1-1.2-1.9l0-8l-10.9,9.5c-0.6,0.5-1.5,0.7-2.3,0.3
			c-0.8-0.3-1.2-1.1-1.2-1.9l0-7.9l-10.9,9.5c-0.6,0.5-1.5,0.7-2.3,0.3c-0.8-0.3-1.2-1.1-1.2-1.9l0-8l-10.9,9.5
			c-0.6,0.5-1.5,0.7-2.3,0.3c-0.8-0.3-1.2-1.1-1.2-1.9l0-7.9l-10.9,9.5c-0.6,0.5-1.5,0.7-2.3,0.3c-0.8-0.3-1.2-1.1-1.2-1.9l0-7.9
			l-10.1,8.9V146.9z"/>
	</g>
	<g>
		<circle cx="134.6" cy="157.4" r="2.4"/>
		<path d="M128.3,155.3h-107c-1.2,0-2.1,0.9-2.1,2.1c0,1.2,0.9,2.1,2.1,2.1h107c1.2,0,2.1-0.9,2.1-2.1
			C130.4,156.2,129.4,155.3,128.3,155.3z"/>
		<path d="M157.6,146.9h-12.6v-31.5c0-1.2-0.9-2.1-2.1-2.1h-6.3V54.6c0-1.2-0.9-2.1-2.1-2.1H75.7l-2-29.5c-0.1-1.1-1-2-2.1-2H59
			c-1.2,0-2.1,0.9-2.1,2.1v61c0,1.2,0.9,2.1,2.1,2.1c1.2,0,2.1-0.9,2.1-2.1V25.2h8.5l4.1,59c0.1,1.1,1,2,2.1,2c0,0,0.1,0,0.1,0
			c1.2-0.1,2-1.1,1.9-2.2L76,56.7h56.4v56.7H96.8c-1.2,0-2.1,0.9-2.1,2.1v31.5H2.4c-1.2,0-2.1,0.9-2.1,2.1s0.9,2.1,2.1,2.1h94.4H143
			h14.7c1.2,0,2.1-0.9,2.1-2.1S158.8,146.9,157.6,146.9z M98.9,146.9v-29.4h42v29.4H98.9z"/>
		<path d="M21.2,113.3h8.4c1.2,0,2.1-0.9,2.1-2.1s-0.9-2.1-2.1-2.1h-8.4c-1.2,0-2.1,0.9-2.1,2.1S20.1,113.3,21.2,113.3z"/>
		<path d="M21.2,138.5h8.4c1.2,0,2.1-0.9,2.1-2.1c0-1.2-0.9-2.1-2.1-2.1h-8.4c-1.2,0-2.1,0.9-2.1,2.1
			C19.1,137.6,20.1,138.5,21.2,138.5z"/>
		<path d="M21.2,125.9h8.4c1.2,0,2.1-0.9,2.1-2.1s-0.9-2.1-2.1-2.1h-8.4c-1.2,0-2.1,0.9-2.1,2.1S20.1,125.9,21.2,125.9z"/>
		<path d="M46.4,84.2c0.1,1.1,1,2,2.1,2c0,0,0.1,0,0.1,0c1.2-0.1,2-1.1,1.9-2.2l-4.2-61c-0.1-1.1-1-2-2.1-2H31.7
			c-1.2,0-2.1,0.9-2.1,2.1v61c0,1.2,0.9,2.1,2.1,2.1c1.2,0,2.1-0.9,2.1-2.1V25.2h8.5L46.4,84.2z"/>
		<path d="M48.5,109.1h-8.4c-1.2,0-2.1,0.9-2.1,2.1s0.9,2.1,2.1,2.1h8.4c1.2,0,2.1-0.9,2.1-2.1S49.7,109.1,48.5,109.1z"/>
		<path d="M48.5,134.3h-8.4c-1.2,0-2.1,0.9-2.1,2.1c0,1.2,0.9,2.1,2.1,2.1h8.4c1.2,0,2.1-0.9,2.1-2.1
			C50.6,135.2,49.7,134.3,48.5,134.3z"/>
		<path d="M48.5,121.7h-8.4c-1.2,0-2.1,0.9-2.1,2.1s0.9,2.1,2.1,2.1h8.4c1.2,0,2.1-0.9,2.1-2.1S49.7,121.7,48.5,121.7z"/>
		<path d="M67.4,109.1H59c-1.2,0-2.1,0.9-2.1,2.1s0.9,2.1,2.1,2.1h8.4c1.2,0,2.1-0.9,2.1-2.1S68.6,109.1,67.4,109.1z"/>
		<path d="M67.4,134.3H59c-1.2,0-2.1,0.9-2.1,2.1c0,1.2,0.9,2.1,2.1,2.1h8.4c1.2,0,2.1-0.9,2.1-2.1
			C69.5,135.2,68.6,134.3,67.4,134.3z"/>
		<path d="M67.4,121.7H59c-1.2,0-2.1,0.9-2.1,2.1s0.9,2.1,2.1,2.1h8.4c1.2,0,2.1-0.9,2.1-2.1S68.6,121.7,67.4,121.7z"/>
		<path d="M77.9,113.3h8.4c1.2,0,2.1-0.9,2.1-2.1s-0.9-2.1-2.1-2.1h-8.4c-1.2,0-2.1,0.9-2.1,2.1S76.7,113.3,77.9,113.3z"/>
		<path d="M77.9,138.5h8.4c1.2,0,2.1-0.9,2.1-2.1c0-1.2-0.9-2.1-2.1-2.1h-8.4c-1.2,0-2.1,0.9-2.1,2.1
			C75.8,137.6,76.7,138.5,77.9,138.5z"/>
		<path d="M77.9,125.9h8.4c1.2,0,2.1-0.9,2.1-2.1s-0.9-2.1-2.1-2.1h-8.4c-1.2,0-2.1,0.9-2.1,2.1S76.7,125.9,77.9,125.9z"/>
		<path d="M94.7,29.4h12.6c0.1,0,0.3,0,0.4,0c0.1,0,0.3,0,0.4,0h11.8c2.3,0,4.2,1.9,4.2,4.2c0,2.3-1.9,4.2-4.2,4.2H96.8
			c-1.2,0-2.1,0.9-2.1,2.1c0,1.2,0.9,2.1,2.1,2.1h23.1c4.6,0,8.4-3.8,8.4-8.4s-3.8-8.4-8.4-8.4h-11.8c-0.1,0-0.3,0-0.4,0
			c-0.1,0-0.3,0-0.4,0H94.7c-3.5,0-6.3-2.8-6.3-6.3s2.8-6.3,6.3-6.3h33.6c1.2,0,2.1-0.9,2.1-2.1s-0.9-2.1-2.1-2.1H94.7
			c-5.8,0-10.5,4.7-10.5,10.5S88.9,29.4,94.7,29.4z"/>
		<path d="M111.5,107V63c0-1.2-0.9-2.1-2.1-2.1c-1.2,0-2.1,0.9-2.1,2.1V107c0,1.2,0.9,2.1,2.1,2.1
			C110.5,109.1,111.5,108.2,111.5,107z"/>
		<path d="M96.8,75.5c1.2,0,2.1-0.9,2.1-2.1V63c0-1.2-0.9-2.1-2.1-2.1s-2.1,0.9-2.1,2.1v10.5C94.7,74.6,95.6,75.5,96.8,75.5z"/>
		<path d="M124.1,107V63c0-1.2-0.9-2.1-2.1-2.1c-1.2,0-2.1,0.9-2.1,2.1V107c0,1.2,0.9,2.1,2.1,2.1
			C123.1,109.1,124.1,108.2,124.1,107z"/>
		<path d="M128.3,125.9h-16.8c-1.2,0-2.1,0.9-2.1,2.1c0,1.2,0.9,2.1,2.1,2.1h16.8c1.2,0,2.1-0.9,2.1-2.1
			C130.4,126.8,129.4,125.9,128.3,125.9z"/>
		<path d="M128.3,134.3h-16.8c-1.2,0-2.1,0.9-2.1,2.1c0,1.2,0.9,2.1,2.1,2.1h16.8c1.2,0,2.1-0.9,2.1-2.1
			C130.4,135.2,129.4,134.3,128.3,134.3z"/>
		<path d="M27.5,16.8h14.7c1.2,0,2.1-0.9,2.1-2.1s-0.9-2.1-2.1-2.1H27.5c-2.3,0-4.2-1.9-4.2-4.2s1.9-4.2,4.2-4.2h44.1
			c1.2,0,2.1-0.9,2.1-2.1S72.8,0,71.6,0H27.5c-4.6,0-8.4,3.8-8.4,8.4S22.9,16.8,27.5,16.8z"/>
		<circle cx="134.6" cy="10.5" r="2.4"/>
	</g>
</g>
</svg>
